<?xml version="1.0" encoding="UTF-8" standalone="no"?>
<svg xmlns="http://www.w3.org/2000/svg" width="100" height="60" viewBox="0, 0, 100, 60">
  <g style="transform: tranlateY(10%)">
    <path
      d="M 55.7 10 Q 40 0 32 15 A 16 16, 0, 1, 0, 34 43 L 52 28, 45 28.5, 46.3 22.3, 31 36 A 9 9, 0, 1, 1, 32 23 Q 42.3 9 55.7 10"
      fill="#F8F8F8" stroke="none"></path>
    <path
      d="M 75 0 Q 60 5 55 15 L 47 15, 42.8 20, 48.2 20, 47 21.5, 52.6 27.5, 54 26.2, 53.8 31, 59.3 27, 60.8 21.3 Q 70 16 75 0"
      fill="#F8F8F8" stroke="none"></path>
    <path d="M 64 20 Q 68 18.2 70 13.8 A 16 16, 0, 1, 1, 60 44 Q 50 53 37 42.7 Q 56.5 44.7 60 36 A 9 9, 0, 1, 0, 64 20"
          fill="#F8F8F8" stroke="none">
    </path>
    <circle cx="65.5" cy="10" r="2"></circle>
  </g>
</svg>
